<svg width="64" height="64" viewBox="0 0 64 64" xmlns="http://www.w3.org/2000/svg">
  <defs>
    <linearGradient id="qGrad" x1="0%" y1="0%" x2="100%" y2="100%">
      <stop offset="0%" style="stop-color:#2D8A8A;stop-opacity:1" />
      <stop offset="50%" style="stop-color:#1E6B6B;stop-opacity:1" />
      <stop offset="100%" style="stop-color:#0F4A4A;stop-opacity:1" />
    </linearGradient>
  </defs>
  <rect width="64" height="64" rx="12" fill="#F8F9FA"/>
  <!-- Brain shape adapted from your logo -->
  <g transform="translate(16, 12)">
    <!-- Outer circle -->
    <circle cx="16" cy="20" r="18" fill="none" stroke="url(#qGrad)" stroke-width="2" opacity="0.3">
      <animate attributeName="r" values="18;22;18" dur="4s" repeatCount="indefinite"/>
      <animate attributeName="opacity" values="0.3;0.6;0.3" dur="4s" repeatCount="indefinite"/>
    </circle>
    <!-- Brain pattern -->
    <path d="M8,12 Q12,8 16,12 Q20,8 24,12 Q20,16 16,12 Q12,16 8,12 Z" fill="#2D8A8A" opacity="0.8"/>
    <path d="M10,20 Q14,16 18,20 Q22,16 26,20 Q22,24 18,20 Q14,24 10,20 Z" fill="#1E6B6B" opacity="0.6"/>
    <!-- Center eye/core -->
    <circle cx="16" cy="16" r="3" fill="#2D8A8A"/>
    <circle cx="16" cy="16" r="1.5" fill="#0F4A4A"/>
  </g>
  <!-- Sound waves -->
  <g opacity="0.4">
    <path d="M2,32 Q8,28 8,32 Q8,36 2,32" stroke="#2D8A8A" stroke-width="1" fill="none">
      <animate attributeName="opacity" values="0.4;0.8;0.4" dur="2s" repeatCount="indefinite"/>
    </path>
    <path d="M54,32 Q60,28 60,32 Q60,36 54,32" stroke="#2D8A8A" stroke-width="1" fill="none">
      <animate attributeName="opacity" values="0.4;0.8;0.4" dur="2s" repeatCount="indefinite" begin="1s"/>
    </path>
  </g>
</svg>